<svg id="ADVISORY" xmlns="http://www.w3.org/2000/svg" viewBox="0 0 86.6 102.4"><path d="M2.84,45.4H40.16A2.84,2.84,0,0,1,43,48.24V81a21.4,21.4,0,0,1-21.4,21.4H21.4A21.4,21.4,0,0,1,0,81V48.24A2.84,2.84,0,0,1,2.84,45.4Z"/><circle cx="21.5" cy="26.9" r="14"/><path d="M107.2,78.15V107a19,19,0,0,1-19,19,18,18,0,0,1-14.5-6.8,21.81,21.81,0,0,0,5-14.4V75.62h26A2.52,2.52,0,0,1,107.2,78.15Z" transform="translate(-31.7 -23.8)"/><circle cx="56.5" cy="35.48" r="12.37"/><path d="M117.18,23.8h-41a1.12,1.12,0,0,0-1.12,1.12V40.28a1.12,1.12,0,0,0,1.12,1.12H107.3l-1.8,7.2,7.8-7.2h3.88a1.12,1.12,0,0,0,1.12-1.12V24.92A1.12,1.12,0,0,0,117.18,23.8ZM114.3,37.46H79.1v-.8h35.2Zm0-3.09H79.1v-.8h35.2Zm0-3.08H79.1v-.8h35.2Zm0-3.09H79.1v-.8h35.2Z" transform="translate(-31.7 -23.8)"/></svg>