<svg fill="white" id="ASSEMBLY" xmlns="http://www.w3.org/2000/svg" viewBox="0 0 89 83.25"><path d="M2.28,37.65H32.12a2.28,2.28,0,0,1,2.28,2.28V66.05a17.2,17.2,0,0,1-17.2,17.2h0A17.2,17.2,0,0,1,0,66.05V39.93a2.28,2.28,0,0,1,2.28-2.28Z"/><circle cx="17.2" cy="22.85" r="11.2"/><path d="M116.11,33.38H42.89a3.39,3.39,0,0,0-3.39,3.39v8.66a13.75,13.75,0,0,1,4-2.09V40a3.39,3.39,0,0,1,3.39-3.39h65.22A3.39,3.39,0,0,1,115.5,40V91.73a3.4,3.4,0,0,1-3.39,3.4H66.62v3.25h49.49A3.4,3.4,0,0,0,119.5,95V36.77A3.39,3.39,0,0,0,116.11,33.38Z" transform="translate(-30.5 -33.38)"/><path d="M111.9,43V88.8a3.4,3.4,0,0,1-3.39,3.4H66.62V71a2.29,2.29,0,0,0-2.28-2.28H52.87A13.55,13.55,0,0,0,47.7,42.67a3.89,3.89,0,0,0-.59,0,3.39,3.39,0,0,1,3.38-3.15h58A3.4,3.4,0,0,1,111.9,43Z" transform="translate(-30.5 -33.38)"/></svg>