<svg fill="white" id="CLASS_MEETING" data-name="CLASS MEETING" xmlns="http://www.w3.org/2000/svg" viewBox="0 0 110.62 89.5"><path d="M36.61,32.5H73.93a2.84,2.84,0,0,1,2.84,2.84V68.1a21.4,21.4,0,0,1-21.4,21.4h-.19a21.4,21.4,0,0,1-21.4-21.4V35.34A2.84,2.84,0,0,1,36.61,32.5Z"/><circle cx="55.27" cy="14" r="14"/><path d="M130.31,70.54V99.93a19.35,19.35,0,0,1-34.62,11.88,21.29,21.29,0,0,0,4.77-13.46V68h27.28A2.57,2.57,0,0,1,130.31,70.54Z" transform="translate(-19.69 -30.25)"/><circle cx="91.27" cy="21.07" r="12.6"/><path d="M19.69,70.54V99.93a19.35,19.35,0,0,0,34.62,11.88,21.29,21.29,0,0,1-4.77-13.46V68H22.26A2.57,2.57,0,0,0,19.69,70.54Z" transform="translate(-19.69 -30.25)"/><circle cx="19.35" cy="21.08" r="12.6"/></svg>