<svg id="CLUBS" xmlns="http://www.w3.org/2000/svg" viewBox="0 0 110.17 99.24"><path d="M124,122.39l-9.18-23.21H117a1.43,1.43,0,0,0,1.43-1.43V97A1.43,1.43,0,0,0,117,95.58h-3.54L107,79.38h4.58C107.61,73.59,102,64,102,64c-.89-1.28-.12-4.33,1.19-5.24-5,1-10.1-3.45-7.82-7.54,4.9-8.82-1-9.8,2-12.74.77-.77,2.94,0,5.88,2,3.46,2.3,5.88,4.9,5.88,8.82,0,2.73-.09,5-1.43,6.81l.7-.42c1.23-.74,4,.05,4.64,1.35,0,0,4.15,7.47,7.87,14.77V28.82a3.45,3.45,0,0,0-3.43-3.44H77.33a3.44,3.44,0,0,0-3.43,3.44V76a3.44,3.44,0,0,0,3.43,3.43H87.78l-6.41,16.2H77.83A1.43,1.43,0,0,0,76.4,97v.73a1.43,1.43,0,0,0,1.43,1.43h2.11l-9.18,23.21a1.43,1.43,0,0,0,.8,1.86l.68.27a1.44,1.44,0,0,0,1.86-.81l9.71-24.53H111l9.71,24.53a1.43,1.43,0,0,0,1.86.81l.68-.27A1.43,1.43,0,0,0,124,122.39ZM85.23,95.58l6.41-16.2h11.52l6.41,16.2Z" transform="translate(-19.91 -25.38)"/><path d="M75.33,81.38A3.44,3.44,0,0,1,71.9,78V47.74c-6.3-6.43-16-10.45-29.67-10.45C29.05,37.29,10.8,48.76,25.17,64c3.81,4,4.08,12.34.24,16.35-12.81,13.37,3.95,25.75,16.82,25.75,22.51,0,34.39-10.34,37.75-24.76ZM30,54.5a7.5,7.5,0,1,1,7.5,7.5A7.5,7.5,0,0,1,30,54.5ZM41,93a6,6,0,1,1,6-6A6,6,0,0,1,41,93Zm7-38a6,6,0,1,1,6,6A6,6,0,0,1,48,55ZM63,72a5,5,0,1,1,5-5A5,5,0,0,1,63,72Z" transform="translate(-19.91 -25.38)"/><path d="M126.9,97.26S116.67,84.08,113,78.9,103.77,64,103.77,64a2.51,2.51,0,0,1,.77-3.59l4.6-2.77a2.23,2.23,0,0,1,3.15,1s4.35,8.6,7.95,15.8,9.68,21.11,9.68,21.11a1.74,1.74,0,0,1-.65,2.22l0,0A1.73,1.73,0,0,1,126.9,97.26Z" transform="translate(-19.91 -25.38)"/><path d="M104,57c-4.28,2.14-9-2.38-7-6,3.85-6.93-.31-7.69,2-10,.6-.6,1.63-.36,3.94,1.18,2.71,1.81,4.61,3.85,4.61,6.92S107,55.49,104,57Z" transform="translate(-19.91 -25.38)"/></svg>