<svg id="LUNCH" xmlns="http://www.w3.org/2000/svg" viewBox="0 0 96 96.05"><path d="M123,76.4v.67a43.11,43.11,0,0,1-16.12,33.66H43.12A43.11,43.11,0,0,1,27,77.07V76.4a4.13,4.13,0,0,1,4.14-4.13h87.72A4.13,4.13,0,0,1,123,76.4Z" transform="translate(-27 -24.9)"/><path d="M105,113v3a4.9,4.9,0,0,1-4.9,4.91H49.9A4.9,4.9,0,0,1,45,116v-3Z" transform="translate(-27 -24.9)"/><path d="M115.87,59.35a1.56,1.56,0,0,1,.39-2.65c2.88-1.2,4.66-3.6,4.66-6.2s-1.82-5.45-6.17-7.39a1.55,1.55,0,0,1-.68-2.3c3-4.2-4.78-11.21-9.39-8.32a1.57,1.57,0,0,1-2-.32c-1.21-1.46-2.22-2.07-3.09-2.07-2.24,0-3.51,4.16-4.92,8.6a1.59,1.59,0,0,1-2.2.92c-5.72-2.7-15.47,1.52-11.6,12.66a1.57,1.57,0,0,1-1.69,2c-6.73-.78-11,5.22-11.5,14.24a1.59,1.59,0,0,0,1.58,1.66h47.9a1.63,1.63,0,0,0,1.43-.81,6.86,6.86,0,0,0,1-3.46C119.51,64.08,118.69,61.76,115.87,59.35Zm-8.2.64A1.6,1.6,0,0,1,109,61.8l-.06.4a1.58,1.58,0,0,1-1.8,1.35L95.54,65a1.64,1.64,0,0,0-1.29.31,1.52,1.52,0,0,1-1.58.21l-.45-.2a1.59,1.59,0,0,1-.8-2.12l.47-1a1.58,1.58,0,0,0,0-1.42L86.18,50.26a1.6,1.6,0,0,1,.65-2.17l.35-.18a1.6,1.6,0,0,1,2.16.64l4.73,8.8,7.27-16.09a1.49,1.49,0,0,1,2-.75l.54.24a1.5,1.5,0,0,1,.75,2l-4.34,9.61,6.49-3.24a1.59,1.59,0,0,1,2.14.71l.18.37a1.59,1.59,0,0,1-.71,2.13l-9.93,5a1.54,1.54,0,0,0-.74.77l-1.56,3.43Z" transform="translate(-27 -24.9)"/><path d="M76,48.67c-5.36-11.8-18.46-16.56-26.75-7.17a5.32,5.32,0,0,1-3.78,1.82C32,43.94,29.86,55.71,31,68.33a2.12,2.12,0,0,0,2.1,1.93l29.53-.08a1.9,1.9,0,0,0,1.9-1.83C64.9,58.2,67.39,53.22,74.89,51.1A1.78,1.78,0,0,0,76,48.67ZM40.52,52c-1.53,1.36-3.17,5.64-3.47,10a1.5,1.5,0,0,1-1.49,1.4H33.93a.51.51,0,0,1-.52-.52c.11-4.74,1.81-11.13,4.93-13.75a1.58,1.58,0,0,1,2.51.88l.11.42A1.55,1.55,0,0,1,40.52,52Z" transform="translate(-27 -24.9)"/><path d="M43.45,41.45c-2.88-5.15-1.57-12-.7-15.26A1.71,1.71,0,0,1,45,25l.13,0a1.72,1.72,0,0,1,1.08,2.08c-.73,2.73-1.88,8.56.35,12.55a1.78,1.78,0,0,1-.46,2.22l0,0A1.69,1.69,0,0,1,43.45,41.45Z" transform="translate(-27 -24.9)"/><path d="M41.53,39.32a10.57,10.57,0,0,0-11-7.56,1.6,1.6,0,0,0-1.51,1.71c.72,8.53,7.83,8.44,11.2,7.91A1.59,1.59,0,0,0,41.53,39.32Z" transform="translate(-27 -24.9)"/></svg>