<svg fill="white" id="SEMINARS" xmlns="http://www.w3.org/2000/svg" viewBox="0 0 90.85 102.06"><path d="M2.84,45.06H40.16A2.84,2.84,0,0,1,43,47.9V80.66a21.4,21.4,0,0,1-21.4,21.4H21.4A21.4,21.4,0,0,1,0,80.66V47.9a2.84,2.84,0,0,1,2.84-2.84Z"/><circle cx="21.5" cy="26.56" r="14"/><path d="M54.72,50.28H88.28a2.57,2.57,0,0,1,2.57,2.57V82.24A19.35,19.35,0,0,1,71.5,101.58h0A19.35,19.35,0,0,1,52.15,82.24V52.85a2.57,2.57,0,0,1,2.57-2.57Z"/><circle cx="71.5" cy="33.63" r="12.6"/><path d="M91.76,24H69c-.34,0-.62.5-.62,1.12V40.45c0,.62.28,1.12.62,1.12h4.32L84,49.83l-5.55-8.26H91.76c.34,0,.62-.5.62-1.12V25.09C92.38,24.47,92.1,24,91.76,24ZM79.32,37.89c-.78,0-1.42-.36-1.42-.9s.64-1,1.42-1.06,1.4.36,1.4.9S80.09,37.84,79.32,37.89Zm4.84-4.66c-.9,1-3.64.68-3.56,1.24l.05.77-2.85.06-.07-.72C77.52,32,80.92,31.84,81,31.82c.72-.11,1.34-.3,1-.65a2,2,0,0,0-1.55-.66,5.44,5.44,0,0,0-2.2.59L78,28.56a7.89,7.89,0,0,1,2.32-.39,5.51,5.51,0,0,1,2.16.43,3.67,3.67,0,0,1,2.25,3.19A2,2,0,0,1,84.16,33.23Z" transform="translate(-29.58 -23.97)"/></svg>