<svg id="FLEX" xmlns="http://www.w3.org/2000/svg" viewBox="0 0 92.61 101.3"><path d="M80.21,47.67V67.58a47.68,47.68,0,0,0-5.4,6.77c-1.64-2-3.16-5-5.4-6.88V47.67Z" transform="translate(-28.69 -24.35)"/><rect x="40.71" y="19.38" width="10.8" height="3.94"/><polygon points="59.57 23.32 32.65 23.32 46.11 0 59.57 23.32"/><path d="M69.42,125.65c-.08-1.35-1.73-33.25,9.41-49.81,4.36-6.5,11.75-12.28,21.94-17.18l4.68,9.73c-8.32,4-14.43,8.66-17.66,13.47-7.56,11.25-8,35-7.59,43.19Z" transform="translate(-28.69 -24.35)"/><polygon points="75.7 53.44 92.61 32.5 66.02 28.32 75.7 53.44"/><path d="M72.47,77.94a64.66,64.66,0,0,0-5.2,16.68,39.59,39.59,0,0,0-5.06-12.76c-2.7-4-7.41-7.94-13.75-11.45-1.24-.69-2.55-1.36-3.91-2l4.68-9.73c1.08.52,2.12,1.05,3.14,1.59C61,64.79,67.27,70,71.18,75.84,71.63,76.52,72.07,77.22,72.47,77.94Z" transform="translate(-28.69 -24.35)"/><polygon points="26.6 28.32 0 32.5 16.92 53.44 26.6 28.32"/></svg>